# xmcd
#
# Track frame offsets: 
#        150
#        12050
#        23150
#        37350
#        50710
#        63842
#        77310
#        90295
#        102647
#        116195
#        128635
#        142120
#        153535
#        168160
#        182190
#        195435
#        208892
#        221420
#        233872
#        247160
#        259012
#        273345
#        287177
#        300347
#        314792
#        328085
#
# Disc length: 4566 seconds
#
# Revision: 0
# Processed by: cddbd v1.5.2PL0 Copyright (c) Steve Scherf et al.
# Submitted via: ExactAudioCopy v1.0b3
#
DISCID=8011d41a
DTITLE=Various Artist - Sinners And Saints
DYEAR=1992
DGENRE=Blues
TTITLE0=T.C.I. Section Crew - Track Linin'
TTITLE1=T.C.I. Section Crew - Section Gang Song
TTITLE2=Freeman Stowers - Railroad Blues
TTITLE3=Freeman Stowers - Texas Wild Cat Chase
TTITLE4=Freeman Stowers - Medley Of Blues (All Out And Down - Old Time 
TTITLE4=Blues - Hog In The Mountain)
TTITLE5=Freeman Stowers - Sunrise On The Farm
TTITLE6="Beans" Hambone - El Morrow - Beans
TTITLE7="Beans" Hambone - El Morrow - Tippin' Out
TTITLE8="Big Boy" George Owens - Kentucky Blues
TTITLE9="Big Boy" George Owens - The Coon Crap Game
TTITLE10=Will Bennett - Railroad Bill
TTITLE11=Will Bennett - Real Estate Blues
TTITLE12=Lonnie Coleman - Old Rock Island Blues
TTITLE13=Lonnie Coleman - Wild About My Loving
TTITLE14=Nugrape Twins - I Got Your Ice Cold Nugrape
TTITLE15=Nugrape Twins - There's A City Built Of Mansions
TTITLE16=Nugrape Twins - The Road Is Rough And Rocky
TTITLE17=Nugrape Twins - Pray Children If You Want To Go To Heaven
TTITLE18=Nugrape Twins - Nugrape ~ A Flavor You Can't Forget
TTITLE19=Nugrape Twins - Can't You Watch Me For One Hour
TTITLE20=Blind Roger Hays - On My Way To Heaven
TTITLE21=Blind Roger Hays - I Must Be Blind, I Cannot See
TTITLE22=Pink Anderson and Simmie Dooley - Everyday In The Week Blues
TTITLE23=Pink Anderson and Simmie Dooley - C. C. and O. Blues
TTITLE24=Pink Anderson and Simmie Dooley - Papa's 'BoutTo Get Mad
TTITLE25=Pink Anderson and Simmie Dooley - Gonna Tip Out Tonight
EXTD=
EXTT0=
EXTT1=
EXTT2=
EXTT3=
EXTT4=
EXTT5=
EXTT6=
EXTT7=
EXTT8=
EXTT9=
EXTT10=
EXTT11=
EXTT12=
EXTT13=
EXTT14=
EXTT15=
EXTT16=
EXTT17=
EXTT18=
EXTT19=
EXTT20=
EXTT21=
EXTT22=
EXTT23=
EXTT24=
EXTT25=
PLAYORDER=
